<mxfile host="app.diagrams.net" agent="Mozilla/5.0 (Windows NT 10.0; Win64; x64) AppleWebKit/537.36 (KHTML, like Gecko) Chrome/133.0.0.0 Safari/537.36" version="26.0.14">
  <diagram name="Page-1" id="k3NYdxD38MuiGKZm-GnD">
    <mxGraphModel dx="4903" dy="2353" grid="1" gridSize="10" guides="1" tooltips="1" connect="1" arrows="1" fold="1" page="1" pageScale="1" pageWidth="850" pageHeight="1100" math="0" shadow="0">
      <root>
        <mxCell id="0" />
        <mxCell id="1" parent="0" />
        <mxCell id="4Zp72_SuEW13jE6xnvjN-1" value="" style="shape=image;verticalLabelPosition=bottom;labelBackgroundColor=default;verticalAlign=top;aspect=fixed;imageAspect=0;image=https://cdn.freelogovectors.net/wp-content/uploads/2020/09/kainos-logo.png;textShadow=1;" vertex="1" parent="1">
          <mxGeometry x="-2185" y="-994.22" width="195" height="44.85" as="geometry" />
        </mxCell>
        <mxCell id="4Zp72_SuEW13jE6xnvjN-2" value="Designed by your Workday Partner" style="text;html=1;align=center;verticalAlign=middle;whiteSpace=wrap;rounded=0;textShadow=1;" vertex="1" parent="1">
          <mxGeometry x="-2190" y="-949.37" width="200" height="30" as="geometry" />
        </mxCell>
        <mxCell id="4Zp72_SuEW13jE6xnvjN-3" value="&lt;b&gt;&lt;font style=&quot;font-size: 16px;&quot;&gt;Proposed Solution Overview (Workday Perspective)&lt;/font&gt;&lt;/b&gt;" style="text;html=1;align=center;verticalAlign=middle;whiteSpace=wrap;rounded=0;fillColor=#000066;fontColor=#ffffff;strokeColor=#005700;textShadow=1;" vertex="1" parent="1">
          <mxGeometry x="-2190" y="-904.22" width="1370" height="44.22" as="geometry" />
        </mxCell>
        <mxCell id="4Zp72_SuEW13jE6xnvjN-4" value="&lt;b&gt;LEGENDS&lt;/b&gt;" style="text;html=1;align=center;verticalAlign=middle;whiteSpace=wrap;rounded=0;textShadow=1;" vertex="1" parent="1">
          <mxGeometry x="-2170" y="-849.33" width="200" height="30" as="geometry" />
        </mxCell>
        <mxCell id="4Zp72_SuEW13jE6xnvjN-11" value="&lt;div&gt;&lt;font color=&quot;#ffffff&quot;&gt;&lt;br&gt;&lt;/font&gt;&lt;/div&gt;&lt;div&gt;&lt;font color=&quot;#ffffff&quot;&gt;&lt;br&gt;&lt;/font&gt;&lt;/div&gt;&lt;div&gt;&lt;font color=&quot;#ffffff&quot;&gt;&lt;span style=&quot;background-color: initial;&quot;&gt;HCM, Adv Comp&lt;/span&gt;&lt;/font&gt;&lt;/div&gt;&lt;div&gt;&lt;span style=&quot;background-color: initial; color: light-dark(rgb(255, 255, 255), rgb(18, 18, 18));&quot;&gt;Absence, Recruiting, Learning&lt;/span&gt;&lt;/div&gt;&lt;div&gt;&lt;span style=&quot;background-color: initial; color: light-dark(rgb(255, 255, 255), rgb(18, 18, 18));&quot;&gt;Talent &amp;amp; Performance&lt;/span&gt;&lt;/div&gt;" style="shape=cylinder3;whiteSpace=wrap;html=1;boundedLbl=1;backgroundOutline=1;size=15;fillColor=#FFB366;strokeColor=#FFFFFF;shadow=1;textShadow=1;" vertex="1" parent="1">
          <mxGeometry x="-1650" y="-722.16" width="180" height="122.16" as="geometry" />
        </mxCell>
        <mxCell id="4Zp72_SuEW13jE6xnvjN-12" value="" style="shape=image;verticalLabelPosition=bottom;labelBackgroundColor=default;verticalAlign=top;aspect=fixed;imageAspect=0;image=data:image/png,iVBORw0KGgoAAAANSUhEUgAAANMAAABVCAYAAADT7tEcAAAAAXNSR0IArs4c6QAAAARnQU1BAACxjwv8YQUAAAAJcEhZcwAAFxEAABcRAcom8z8AACAVSURBVHhe7V0HdFzVmb4jWbbBGEJJYnYTSNndAAmQShpZSCPZQLLZTZxCc2Jr3psZNTdCnKbkUGzJFnLBYGOCg40tvfdmVFwxgdiwCyEcWkJJII26xoAdSZaLbEuz3/e/+55Go6myjGXzvnPumdHc/t//u/9/y3tSAUY2Xq5Vp+ycqy7MFfYgdM1T5ydr1VidLUCANyf6VqhxW+eqcR2z1Xt21qub9zaqFV31buisV08lb1TJnGGxSvYtUMmuueoBL1/vfLViZ52ajTJPZNl9CLq6AAGOLnTXqQ/33ai+DMvy830L1FYQYSuItF3IcVN/6AVJkCZv6J6H9AtT8t7sE+wVxG/d2yDlV7DOjnr1Xt2MAAGOTCSXqlNgaebsvUHdBuvRKRYFBNjXqJL7EfjZnYEoQw0kWGrZQjbUibi/7p+vlnTWqauSywPXMMARgleuU29PLlMXwhLduH+hejm5yLUcINQg5T/UwSMqiCSWS4i2QD3fVad+gr8vxPrsWN3sAAFGFuBizQJpHqPi0l2jEtNapCt5MWFPg0sCht34nilNoWEX2nIAbWLbSPADC9TdXfOUoZsfIMDhRXe9mnBgkZoE4vxJ3CoEKm4+940ko3Iz9MBqeeue9CDl1KvXkWcHrVumNHTlSDqvvLx160/m6wFJO+eqp/tuUpf88So1XncrQIA3DslaVYJ10A/33KD+QKXkbE9FTlfc1EACcZOAhKOFIAH4iXK2QaGvxeeP00PHHPWdXXPVx7bPUZ/C+ut7u+cNTgOLuBChh9aLZYrlQR35NjOQR6ydpEcf9s1Xm/FbRHcxQIBDD8zsk3oXqie5HiI5MimqF0ggKrhYEKSHsj4JAj2OdUvjjtnq3L6F6tyOG9R7dNFDBso9q6dBncsyO+uUdaARddSrP0u9sHpisXKQndaKO4vcvEB4fOds9TlddIAAww+sL87ouxEWZK7qpeJlU04osWw4eBYCf++FKzcH+WYlbVWqizvk4JkT2nMtrM+NXnsYaI3QlsHtRoDl83YAd8DS/RiTxVt1cQECHDzg0o3qu1mdh7XLX5PLsisjg8zwsAZ7G9RepP8fWJ7P4PMcXdRhA11FWKevod1/EEvpEiZjYN9kfXYr/mYfGtWZupgAAYaO5FJVBsti9cJFowuUSfkYfEuEdL2L1WqQ6mJdxIgD114HFqkNJJS3dsvUJwZv9w+kmqOzBwhQPHZco07vrldNtDTZtqXp6jEei/fdIN3dexrVhTr7iMaTtWp032J1EazQ70GmPq6rMvWPQawUiAfrVvf6teqfdREBAhSGjjplQMn2cVbOtjbyZm0o5eo9N6iLkC3k5j5ywDUcrM7lsFTruQ7kjmCmvnIy4WZLT6Pa0TFHfUlnDxAgN7pApH2LVK8cuqYplb+egDVC3DN0mXS2Ixr2RFUKIv0MfdxBK5RpAuFvvQvlFsXOHXXqEp01QIDMIJFobXiYmb7JwL97QTAs5PfD5bmj6yjc6UIfz8JksYVWiJNGav9FBvWuNd7bqHaBXIGFCpAZUI7yfQtVbyZXR3bpeMeuQe3orFNf0VmOSrzQoI4BqSJw7fq4oZIuC04qB0Co/QtV1/bZI3ejJcBhAmZcU2bjDBaJ6wW5UbBQPfSPOvVZneWoB9ZSl4Iwz2c6U/MsFNaKu4M1VAAfUJTJPQtUX7pFIqnkTAbKBMW6bsccdYLO8qZB13XqjN3z1G3eLYp0+dBCwZp3dgYWKoBnkTKtkTwiwTJdrZO/aYEJZwk3XQYRyrNQDWrv9qPc/Q2QA7RI+7JZJO7YgUhQlh/r5G92hCCLX2YiFINs2ixQXUf7ejJABtAt4TZvJovEXay+wCJlxO5GtTirhYI88X3v3jr1rzp5gKMdyYmqFIP+2/SdqsAiFQbI6pZMayjZ8XRlukwnDXA0A+uj4/c0qjtkhypFERhIpD4eWDaoWTp5gAxIwuWD9V6ciVD8uxeyxeccbrHrLAGORnTUq6rkLYO3ekksbkR0zVM/0kkD5EFnvVqW0bpz4waT0vbr1Sd10gBHG7oa1Zkg0YuDNhzg7yeXiCI066QBCsDWGWoc1pXynr/0dSfvLe5qUPfvvE69XScPcLQAVmcMSPMgF8+pg87AA9me+erVzgb1CZ08QIGATL8B2e3jPcZ0QtEDwOctOmmAowFyM3quqty/QB1I9/G5cwe35JUdc9T5OnmAIgHX+dLeBaqLN0VSZcs1KLyAzs656j900gBHOjoXqZM767LMnstUsnOOmq6TBhgiYKF+pS2RHyhrrqm66tRzOlmAIx0g0kKegaRvOuwDuXY3qk3dN6hTddIAQ8SeevVeWKLfc8JKlTE9gQM3qh5YrwqdNMCRCr6xZ898tT19kOmC0C15eY46TScNcJDYWac+K++WSJm0aJ34yD/c6Ue3zlVv00kDHGng+xs669VmDjB37FLJxN8wW87n49s6eYCDRN+tajzWn+08f0p1p2W3FL+BbHU6aYAjDbvmqq9yG5yvr0ol0v4F4vK92tGg/kUnDTBM2DlbfQFeQE/6g4UcB5Cqo2P2wb8jMMBhANZK9/IMJHVQeaDI+3hwRb6okwUYZkDuNek3TOSqEb2BOjVXJwtwpKBrjjp/d6PaLsRJGVRuRGBA730jXwb5ZkP3tepUrEef4QZPquwPQPaYzB7ZOT84yD1iwPeAd85T1+hbDf5gypWhxWp/d2Nw7nGosbNeTe+7WfWmWidZO92skljHXsn7fTppgJGMzkb1vl3zVBd37LyBZJCdprnqzuB/wR56wM07DkR6hv/cLXUMxFrVq7+9GZ9aPiKxvUGdLRsPKSfyPO/YO1/1ds5RM3Wyw4va2hJlPFzmh4n2yHM7a5Mlo6PWdFW1dkmoev2ScZXOd6XdBQIWKMGHBlOtkzw/Vq92dtSqk3SyACMZO+rVOUkMYiqZ+GpjDO7+voYRMohh5yJVteE5ZdjPqcq1z4VMp/2sWntkbdMbViQ0/e6kmnpXUk37dTJUua5XheNf0LF5satBnccbEKnjoHf19vCfCuhkAUYyOOt1zlVtXDNxMCXcJGRaNGI2HsLxb6hp9yRVRXtS1WxKlprOC+f+aO3IevWwaf2YJFKm44aaO5Oq3PovHZsXfXVqPIjTnj4OWMfOh6sdnO8dKeAt8T2NasWBBerB3kXqwT0NI2xL1oh/HZbJVdKKNcnSiP3sh65q+ycdOzJgWFerqZv6yVS1PqnC1td0bEEgabB2vZ3jcADjsOsGNS+ZDDYfAgwn3iRkChDg0CMgU4AAw4SATAECDBMCMgUIMEwIyBQgwDAhIFOAAMOEgExHMWo3j1Ixe4KKrZugZm6eoKYsK+6mAPNJQBkzfzdB1daO0jF5cfLkW8dLnQyTlr9F/1wcjKVlUq/0ISXMRJumWAd/64Fls30ZcKKx9ASJ8+tE2gvy9P9gyHT5irf58p6yemg3sKust/rjJUF/T8Vwk2lymzvOfp263intxffhkqXH+mVR3kPBNxuOcXVm3YRjUc7pk5YP053NWOsHVSTRrSLxbhVt7Vaxtr8pw/mojs2NsD0DCtENgbuhci3KaWlFeXkfU56AQS2JtTyqYu2ok/W2P1twvcDba5reVRJbcwXa3aYqUK/XBi9EW7pR3t9U9Z3fV5euKv4KS8w+Thn2Lapyndsv05mtqhaM0bFqVHj1x0sr2p4QmXl1Sv8TbTn7P1QyhZsuwti8ljJWu1TEmaxj84Pkq9loKtPehjHqb7OJsvhZs/EqZa5y3xVuNP1wWMgUsT6nqjZegTofkXH260RgPwy7E2NXM6rc+YzOkRvlLf8WirU/4JfFsTGabynqfqMQuW2LqzPx7pLKNd1l0eYrdexBwmw5D41KooIkFDCpZmxOhkznNh2bHdOsYyCM10XQ0VY3xBB4nyvc/DGdKjNoDU2nXa6p6LyhaXcnQxHrWp0iN6JNnyqpbH82xLoq17rt9trgB/zGPvFaTOW6h6GAP9S5C0O45b0YNCg8AuVjOj3yO/odiiSWo/ztbt9T6mZ9TGtY2d9oOhQyTWn+CvrZKWWzvmrkj7b0oZ7LdYqcGAt5QXEeU9N/445RJnlNvwefib+LsplWWMbxYMhkWN9Ge3tE/pRhxjFCQD2hWBsnvxt0zuzgmETbnnX1huMLvQHpx8Scwh6LJ+kMZ4mCrrntQZh5H8bLLk43ssJo+aQMjic4KFBJLP738TXW+3SKjBgVtWeFKtb2QkmTbkgguAqiws40lUxmvzrCi50miEghs85K5DHjTwpBcwFllpj2lVDmf8gAMy/rZfsp4NQgBEC7TNtVhmr8Vm79QpeUH+XWuyHk/b7QzfhOKNkX0cc7RCnZT4mjUuCTMpDZPL5AJotsKJZM5c1fQh27ZdIw0BfWW7l2J2bkr+oUOXGMaZ1XUgGLJnUiP9vJNldvHCwvfhrO7xCWS32eThRJplKj+Voofa+ML9ucqT6ZiPA7y/cmPcP+ZV4rU25NF5Jy3JkX5YZM60EdmxvGr09AHZ1+vfysXPcqxmyY/h1ORcvJaFibqpLZ12+g3G7OBdNaqKa6lyFDUDoo+R5RXg626WzVqbLDsJ7rJ9NalOE8rWOyY8rqL4J4+6QODhIHgcphWFfBpYDLlxJoXdkPxlOJqPAcxHKsBwpBKpnYRhk81oXfWI4rK+222LtCbNNVmOXCzk91CZlROJlCykh8Ge4ILFIKkWKte1BHYQ85VqDcCMiROllGWg6EDGs7fq8YIC/DvkHkSSWnRWZ9Xp5iyGTal4mye0SSSc15HfoyJbU+jPcv4AF1a31xx4nW0LAW65IyYyIm4rC1S9rKfEKI9dsKIkQ0/h6OlU8mTrCGdZ+OHSYY8Z/03xJGpzh4YbgGWXD8NOskWIc1ImSZwex7Q0bzXBk0CBGD9fJpP1yXfZ1CN4huknQK9SHPmIg1X8dmBtsTbXnFtWIkh8wq+1S5/T2dYhBC0dbZWAv0EwoDi9+eE1cmH9LJJANHC5TgIwlbSqLxb7v+tz3hxGjTO8vY/khipSy2c6FQMk1cekLItGFRIGOZOKCcFWs71ORVX9cp8sO0E+LSeO2XWdzZgnZmXtNFWqKQEV2u/jwMhZIp0vwBktUnEolS0b4dZVyoUwxEVeIdsIJ3Sfmsh/mira+KO5cFpxpLjy0xrM39lhP10FPg+j0fTHsl6uqTfNSJ2JpekLxRxw4PxsXsGSVVa/tcpWOnIATDXp3NXSmNNH8pxFmfaTnzhO1NYh04Y6MMun+jYk72/yphWCt8n5wzPmcZI36Gjs0Mw1rvKwbbyXpzEMlH2FqGtBAa8lHwaOOYqLPiyymbCRmRkUwyo3VgdjxOpyoehZLJSFzvKgz6yjbIhGOX69i8KINiw/3ZKgoqbaecW/tKI02X6CSZYdi/7VdUHQolk2H/yicGZVXRvksmzhw4sdo+rbSi5QW4hW4+TuqRONZPOZYJ9JoqN+gxRXCt229z7nDy4caIs1G8FWmfHtfIiuF9p99ZMfs4zIJ/dGd9No4zi7NDTGomUECVFJpWasNei4b+iM/nSP6pVPr4jTr1YBjWIn+3KCKzfY+KNp2pYwdhfFXTp0qjide1Muv22U/DKhSm1NGWe3wFhhAxs/Womjxb8elk4kxLMnPSKOKp00EohEyGVedOTK5rWQLlHh1pLu5F+Fy3pm4iUGZh6wFoVe62yw6cHlsvbyFkogsVbd3mk7eC3k3zOh2bE6GIdZs7UULGlHesrQN5P6yjB4Nra3pGnrvNybVqbbIskviATjEYfI6seuOufoPBCdx+Qo4Khh1h+1F/RnLJ9AIGffDsDWuFNdIvZTbgYFPBY87nRcmm6s5BkKVR52HOOjqXjwmx+OmlEecRn7h0DQ3r1ox1eTCdb/UrBpX6HuaJ6Nj8MKwWf0aiMDFDj4o0T9WxmZFOJvY31v443M2sLkhByECmc6dZ/Q8HRpzrxZcXItGSboKSWJvPq1p5vE5RGMoTVQPIJHIuYNPiKripJibH1DV0IWQyYE28pQJlTHmFV39cx+ZGzD4f6beJLnleh7E65zHJ2EjT1aGKdnhT7oTD+kDKRTp6MEwnZYdST4wRq/CjhaIQbv6G2xk0Tpi+fj8aeZ2O7UfVs2OgZJ3iw3tkql5zmoquOhGK94TMSGhwCGuV0ormL+lcPkCkS0L+Ah6d4pbsFCv7op2Hsob9k373AXVWru+Ashf85Cfa+QH0ZadPDHftgFk6B9LJxDYb1h06dujIQKaPz+LhJSwGz7I8i0RLKN9bHpLD2iLAQ8hS01rly0z6zDqtb+okuRFuqlTTUohYEJnglvrehiaT0fzvOjY/wtZTojsy2bVzMp6oYzLiHdOWnYTx2C16yDqRNxSJP//WTOthunKmjbWyt2mBMa1a/49Cd0SLxxS4WR5BWKHL4sHnTXT9DOclNy1cpojTPSZmuW9INazf++6fDKQ1+IWPRuvnfWUCEUOV7dtHR5qy705NWj4BirVXSMs8MsPaG3RsYZj8v+ORp8Mvg/Ub1j06NjPSyUTLZjiOjh06MpCpwbKOGQ3lkXUo3V7G0WWOtT2kzF8V/Uj7+Ij1Pkxa/WMp5XECs76lk+TGEG5AYHJaOMDtkrW0dYGOzg/D+ZMQkPlpZUz7yZzHK1xTRZzFvseBUII2j2bb0xFOnIqx7B04Mdp36thDAJ5+m/FXUpV2lGklPtGQdvZjOteo6vX7RGCwPiGzud7fqKA7JZbJnZkgkPtBhv6rGvJmnrghgmYdcCVC4TxnBFxUGg5P/P124e/iBGGsOQXC6z9fEGW279axmfGGkAnucMR+/J1TnfeHovHHfWVyJ6r7lbHqFJ2rOBirzpAx8MjEw81I/PVR+Q7TPRRJpgk1TWeOjTmv+fLFMgF/P316Teu7dJL8SCMTZP/X3GQCwtbZWJq83j8BcYziS9LPK0dHrIWhyjV9IhMGeUGMdZOOPkQw7Vn9QownR1e29p5U2TzwrTSGc7trteiicdHY/AMdw8Xr+4RkHETX/L424K4eNzoMe5tvbl2//CEdmxkumeCiHYVkQtmYcF4oMe2/+BOM5yKVr/qIzlE8OA5SliYTyFBiWL+eWOhbkIq1TLGW82Us2Xamp1WNFHgrwcNgMj2bl0yE6SzzzjulfuoWt+hTwa10Eo1pqAP0dKgThxSG8ws1A2sYEoUVU4GiiYt1rHtfLRJPiEKjUaFIYscY7v54YCeEILpT0ZZtqnzFu3WsUjM2jUO5r7odxkAz5Fv7HM1kghxApGfKInZCyOQpIyzWKKO5RecoHulkoszCdquOzY9iyWTGPy0bSj6ZZLIdvN7OhSGSqcSM/wzt2y91C5kwiYctX2fp8sLq/8XfZaTuGdafVTTHOeiwIAwrVLn2/+gWeELEQrZf2SlQClbiqBDcak0BbwGb9n2+UGQBbS3XsRAYNxOcrQPIZKzJ/X+SjmYyQU5Y2zw1cY59Asqu82XLdvIyZ7SINUcqhExULk0mktO0Hv3grAK3gYsk0/ga5+NlFZCTRyb0ryzqOOfMWDFOJ8mPoVom977dS35e7kiHrT/oWBA9YfqWi4FeVdi6QsceYvB6RbUeVLAZbshDUMZjJW5y0+dFmRnH9U7EuUt+T0XYjvlbkBwQ3ur14M4iPSJ0Kikvypp5/OrwylOlLE+paa7D9hodWxhGNJnsZ2O1sPjoZyja0iPK4N8eWNOByaT4/9phxM8IcUL0lBukKqts6zmpqin3FTEPRZKJpCmLYL3sTQaorzTWsv+YQrfGiaGSiSi3wiI3sUxt9JheOanKOkvyU+dSN0aqNvC2fe6D62GD6TzmC4UWhCf+PAOamCyFJWpwG50AyeJ94yoSgwZ6VLR5VkjOG6AQTBtre0AUk6AyekSjX21Y03OedBOXrTwegt0wQNCx9qfQlrN0ivy4HO7lgN08EgMWNBfeQDK5h7aQQyTxNcjMtcIklMivvQNpM1/HyYLjpyw7qSRsbXI3g1APg6tQhe3mhZtnFOXmEWbiGj8PlVbWgE2Ftzts/3HIZOIBb6qbKdv68VnqAnk6oad/DLmL57Qf1KF7UeB5UyThXi0Sdyz+mpwST9o8FgTZI7+5V1PQsMEu2thY/PRQtPVJLRD3NoThnhmUGs2WO6j4nfepeNBbCHg+IqYa+Vim5LUNHZsfEedaKJbrV8tuztq+kGnlfszkDSeThtH07ZBYf7aVhFqXLInE/3G8d/xQKMJ0b/TEJe1HmYWcq/DhRtO6xp/NGQoiU3yhuyGFNlPOHP9ctxhSwQNpM2VdUyyZJL+zzr2Bg/rR3lFYh46tsD45YAyrNvSCtMXdJDkolCfeIQPp+dvVG0Es3QDDcnfi5IaE/TjSZD5MNOz7+91BfJYnPnH69PgZZZWtO2TWZahav1VF89xM92BYX4aA+UCZLpOD69w2YNs9F0xYNhE08nIi4Ge+mwyHiUwn1Cx/S4lhPSmzKNNQOWRGtYt7M225c/WAS66uguW/DAq5hExnt7/drPPmJxOsXtU692DcIxMfMiwEUR63bBp4164YMhFRyLVyfZc3XugDx2sv5OdebO33sjKvG/n8Vc3dJvL8t/7l4DEGSlTCSj0lcmeoZeicgU7uFYWmYoatqM4yCGOi9q/kkQSSUj6dVejUlaKQMnNQmeCGFAr3+ad7fQVjG7hr8/2V+V09eVH+upddF4+KuZE7aFtSn5rNiMNlmQhOaLH2R7TsXOWUPC0/0yny4oRK63Mlsbb++4xQJpD0xVO99W82RO2PuB6JnnQYCiETwTNDuqa6b2j36zJ2eYC19xpXN3R9zFssmYAQJ/jUIwZv7BiETPZz/vrfAzdJDCeCNPXwfuagjLmQwffzPltXEORgFbOaN5Ozk5HEIpjHle46BwrJK0CmM03nGITR3E0yHPfEmZ3gbgt3VTzlEKtl5z5fSkOJac0UYnsConWsaH8IpMx6Q+A4Y9UpEM4Lsl3PdtM15cNg0fhndZLsOJxkIqbcfmaIdXuTAL+LwsEFKxDo+8O+ksoEREJBUbKBm0Gx9idcxUMeLxRIplKz+Sv9j7ywf2t7Q7HWxDtyKWbYqoYcYJV0Hsk3NDIdE7O1jqWU5QXqXHnzZYPW6Lz5w3t7nPCn3nWNXCgOW5WqWLc6G0oMp0IeCZdGyGAsxAx/k3xnYyvanpTt12wQV9He55OJN9L50BjzclAjLVi/2N/RqQuHYV3vDhZnTVoZuj/OE3Jj+XLMMKkhbF0cql6/xScDAycBw7Z0ablxuMk0sXZ0yGy+UdY9Xn/RlhAUe2yMSlEATOe7IcrfszK05rHWbWVR6+cn8C5lqrzMtrNQvvtIOMkj/UadzFeoZeKzXGYi7rv4CLyHGYrYbXJ3M6W+cVgihHj3k+1j+e4BvhuGSCa4tu9XsZZ9fn/9AHJVrtsvTy2nYlLrWzCmFe7/ynKWjKuwLsUEtF4IZ8ZrhsU6va3aOac0mnhehO8KZikqu1W+y5UNK/c5z0S7NMRn7WVQxM14EaFRBMdBClsH1BW3n6xTF4doYp4MOH16WhuZiZztaN/WAYG7OP6sDGGKuxp/BO15py4pNw43mQQY1EjL4gGKxiOJWNsjqgaKkAe18DJQ/haXkJCBWOe2ZMhd6L+SJi+uJzi23JzZGOKDiV7fCyUTcGx45anQnef6Nz9QrztGA+sznFfld6nT+RPq+02/RRsimXiOaWLSn643qzyZye2HuI26Brr2U+7kZdmr9fnnfLRhJfo5e6JtlyLfNYNcwiGDW8dUIApU3DQb6w58d8m1UafKDq6p5FEJdIpC8g6CQa4y095xMh+pHhpCKtw8W3a82D4hKMrmZ2oQRUC9HCz68RXtD6rJqwuvkxsUJKy3YSFkhG9/sBhEJufPZ/8AljwLzqqtHV0asZ4RhfYURIiN8SnkWRxa7Yp2dy0hZSA/5ZIuL7rwiB8Via+UfKb9oIw1x4/E4C5vgTiOj1REWy3Jx3ppKdLrY0B9oVj7XrlFY9inSfu894gY1ktFk4kotz+I/r4g5UtfEWru7IMOL9EpBoJuXtiZXBLDsqX8jg/Cit6MJUUN9PdsnWIYYNo3qxlb3INXukcMPD9yO/whnSo7ypv+E0pzQPJxoFgOP69+AAPm/HRiMa9nyoCxVYmrS6rWb4aQdshWOctODdxK56BUrLlPVa75urpsQXHPA/Gmcdh6Xs3c7CrTzC08pM7+vEyh4K7RD+532zjzPt66f+kj03PfEys1HchyXY8vS4YfPQRFyXPw7OHSm04sibZOgSx+J0Rmf3w56e9VGx7DuFbzsXDJw6dm0Wc1A7Ll2deU5k/L74Vi4sRSTEZLSyrXPMqHG2U8Uut0n316Wk2+/aOiC1w2RFtf49uxRO9gHYdEJsKwfuc+vQAiCani27Kurel+ms7MMTE+77Tx4rKYMxl9ryr4wdOCII9aoFAzMU2e2mTgd6O5KusTuOmga1C9oT8/Q/UmlJHnEfViwKd+WWZqHQyxtmkYoIN7+IsHwyxb9/u46UO8xZ0Kvt+gcp3bRn7qM7i84OLel6Xl5g1bl+rYwsDNpUg8qmKpY6o/uZZJxTexXjCap4IETFPUoXEqLqldeuyYaHyKjEdqnRLSFDza/DGpj2kP5gWivDzt7epxqWLYL/L/9OrYjDi20roY7uBPxvFB1wABAig1vqLl5JDJq0ncooc7K6Syr8x70yZAgAADMcqwpodquCblZgbXzHD3hnphOECANzOwBm3Vm2TuRk00YSm+0z5AgABFgM/jeTcwGKbdzaOH/K9dDhAgQAqiLT/zj3L0xkMomnh2LLfcAwQIUAD4BqTqjQtlo0GIxHPNhGy/l0WsSTpVgAABsmLS8rEhvuU32topZ1jcbPBuxMg78VoWy/Z+gAAB8oC30XmPjofA4ta1yYZDSaztRRWJ1+pUAQIEKAh86yt37sTFa9taVtH6G3liIUCAAEVCXqbCWzpOPd98dUG+f4EaIECAkQSl/h8mmq15k1yedAAAAABJRU5ErkJggg==;textShadow=1;" vertex="1" parent="1">
          <mxGeometry x="-1600.25" y="-689.76" width="80.5" height="32.43" as="geometry" />
        </mxCell>
        <mxCell id="4Zp72_SuEW13jE6xnvjN-15" value="&lt;font style=&quot;color: rgb(255, 255, 255);&quot;&gt;Payroll System USA&lt;/font&gt;" style="shape=cylinder3;whiteSpace=wrap;html=1;boundedLbl=1;backgroundOutline=1;size=10.899488525390552;fillColor=#4D4D4D;strokeColor=#3700CC;fontColor=#ffffff;" vertex="1" parent="1">
          <mxGeometry x="-1100" y="-849.33" width="80" height="59.33" as="geometry" />
        </mxCell>
        <mxCell id="4Zp72_SuEW13jE6xnvjN-16" value="" style="endArrow=classic;html=1;rounded=0;strokeColor=#000000;textShadow=1;" edge="1" parent="1">
          <mxGeometry width="50" height="50" relative="1" as="geometry">
            <mxPoint x="-1910" y="-758" as="sourcePoint" />
            <mxPoint x="-1850" y="-758" as="targetPoint" />
          </mxGeometry>
        </mxCell>
        <mxCell id="4Zp72_SuEW13jE6xnvjN-19" value="&lt;span style=&quot;color: rgb(26, 26, 26); font-family: Helvetica; font-size: 11px; font-style: normal; font-variant-ligatures: normal; font-variant-caps: normal; font-weight: 400; letter-spacing: normal; orphans: 2; text-align: center; text-indent: 0px; text-transform: none; widows: 2; word-spacing: 0px; -webkit-text-stroke-width: 0px; white-space: nowrap; background-color: rgb(255, 255, 255); text-decoration-thickness: initial; text-decoration-style: initial; text-decoration-color: initial; float: none; display: inline !important;&quot;&gt;ASSUMING EXISTING INTEGRATIONS&lt;/span&gt;" style="text;whiteSpace=wrap;html=1;" vertex="1" parent="1">
          <mxGeometry x="-2130" y="-770" width="220" height="25" as="geometry" />
        </mxCell>
        <mxCell id="4Zp72_SuEW13jE6xnvjN-20" value="&lt;div style=&quot;text-align: center;&quot;&gt;&lt;font color=&quot;#ff0000&quot;&gt;&lt;span style=&quot;font-size: 11px; text-wrap-mode: nowrap; background-color: rgb(255, 255, 255);&quot;&gt;&lt;b&gt;EXISTING&lt;/b&gt;&lt;/span&gt;&lt;/font&gt;&lt;/div&gt;" style="text;whiteSpace=wrap;html=1;" vertex="1" parent="1">
          <mxGeometry x="-2190" y="-770" width="60" height="20" as="geometry" />
        </mxCell>
        <mxCell id="4Zp72_SuEW13jE6xnvjN-21" value="" style="endArrow=classic;html=1;rounded=0;strokeColor=#007FFF;textShadow=1;" edge="1" parent="1">
          <mxGeometry width="50" height="50" relative="1" as="geometry">
            <mxPoint x="-1910" y="-783" as="sourcePoint" />
            <mxPoint x="-1850" y="-783" as="targetPoint" />
          </mxGeometry>
        </mxCell>
        <mxCell id="4Zp72_SuEW13jE6xnvjN-22" value="&lt;div style=&quot;text-align: center;&quot;&gt;&lt;font color=&quot;#1a1a1a&quot;&gt;&lt;span style=&quot;font-size: 11px; text-wrap-mode: nowrap; background-color: rgb(255, 255, 255);&quot;&gt;WORKDAY INTEGRATIONS&lt;/span&gt;&lt;/font&gt;&lt;/div&gt;" style="text;whiteSpace=wrap;html=1;" vertex="1" parent="1">
          <mxGeometry x="-2130" y="-795" width="190" height="25" as="geometry" />
        </mxCell>
        <mxCell id="4Zp72_SuEW13jE6xnvjN-23" value="&lt;span style=&quot;font-family: Helvetica; font-size: 11px; font-style: normal; font-variant-ligatures: normal; font-variant-caps: normal; letter-spacing: normal; orphans: 2; text-align: center; text-indent: 0px; text-transform: none; widows: 2; word-spacing: 0px; -webkit-text-stroke-width: 0px; white-space: nowrap; background-color: rgb(255, 255, 255); text-decoration-thickness: initial; text-decoration-style: initial; text-decoration-color: initial; float: none; display: inline !important;&quot;&gt;&lt;b style=&quot;&quot;&gt;&lt;font style=&quot;color: rgb(255, 0, 0);&quot;&gt;PHASE 4&lt;/font&gt;&lt;/b&gt;&lt;/span&gt;" style="text;whiteSpace=wrap;html=1;" vertex="1" parent="1">
          <mxGeometry x="-2190" y="-795" width="60" height="20" as="geometry" />
        </mxCell>
        <mxCell id="4Zp72_SuEW13jE6xnvjN-24" value="" style="endArrow=classic;html=1;rounded=0;strokeColor=#FF3333;textShadow=1;" edge="1" parent="1">
          <mxGeometry width="50" height="50" relative="1" as="geometry">
            <mxPoint x="-1910" y="-807.33" as="sourcePoint" />
            <mxPoint x="-1850" y="-807.33" as="targetPoint" />
          </mxGeometry>
        </mxCell>
        <mxCell id="4Zp72_SuEW13jE6xnvjN-25" value="&lt;div style=&quot;text-align: center;&quot;&gt;&lt;font color=&quot;#1a1a1a&quot;&gt;&lt;span style=&quot;font-size: 11px; text-wrap-mode: nowrap; background-color: rgb(255, 255, 255);&quot;&gt;WORKDAY INTEGRATIONS&lt;/span&gt;&lt;/font&gt;&lt;/div&gt;" style="text;whiteSpace=wrap;html=1;" vertex="1" parent="1">
          <mxGeometry x="-2130" y="-819.33" width="190" height="25" as="geometry" />
        </mxCell>
        <mxCell id="4Zp72_SuEW13jE6xnvjN-26" value="&lt;span style=&quot;font-family: Helvetica; font-size: 11px; font-style: normal; font-variant-ligatures: normal; font-variant-caps: normal; letter-spacing: normal; orphans: 2; text-align: center; text-indent: 0px; text-transform: none; widows: 2; word-spacing: 0px; -webkit-text-stroke-width: 0px; white-space: nowrap; background-color: rgb(255, 255, 255); text-decoration-thickness: initial; text-decoration-style: initial; text-decoration-color: initial; float: none; display: inline !important;&quot;&gt;&lt;b style=&quot;&quot;&gt;&lt;font style=&quot;color: rgb(255, 0, 0);&quot;&gt;PHASE 6&lt;/font&gt;&lt;/b&gt;&lt;/span&gt;" style="text;whiteSpace=wrap;html=1;" vertex="1" parent="1">
          <mxGeometry x="-2190" y="-819.33" width="60" height="20" as="geometry" />
        </mxCell>
        <mxCell id="4Zp72_SuEW13jE6xnvjN-34" value="" style="shape=image;verticalLabelPosition=bottom;labelBackgroundColor=default;verticalAlign=top;aspect=fixed;imageAspect=0;image=https://www.ceramic-applications.com/wp-content/uploads/2015/11/Almatis-2024-Logo_RGB.png;" vertex="1" parent="1">
          <mxGeometry x="-1140" y="-1004.21" width="319.96" height="99.99" as="geometry" />
        </mxCell>
        <mxCell id="4Zp72_SuEW13jE6xnvjN-36" value="" style="shape=image;html=1;verticalAlign=top;verticalLabelPosition=bottom;labelBackgroundColor=#ffffff;imageAspect=0;aspect=fixed;image=https://cdn3.iconfinder.com/data/icons/142-mini-country-flags-16x16px/32/flag-usa2x.png" vertex="1" parent="1">
          <mxGeometry x="-1010" y="-840" width="32" height="32" as="geometry" />
        </mxCell>
        <mxCell id="4Zp72_SuEW13jE6xnvjN-37" value="" style="shape=image;html=1;verticalAlign=top;verticalLabelPosition=bottom;labelBackgroundColor=#ffffff;imageAspect=0;aspect=fixed;image=https://cdn3.iconfinder.com/data/icons/142-mini-country-flags-16x16px/32/flag-the-netherlands2x.png" vertex="1" parent="1">
          <mxGeometry x="-1010" y="-782" width="32" height="32" as="geometry" />
        </mxCell>
        <mxCell id="4Zp72_SuEW13jE6xnvjN-38" value="&lt;font style=&quot;color: rgb(255, 255, 255);&quot;&gt;Payroll System NL&lt;/font&gt;" style="shape=cylinder3;whiteSpace=wrap;html=1;boundedLbl=1;backgroundOutline=1;size=10.899488525390552;fillColor=#4D4D4D;strokeColor=#3700CC;fontColor=#ffffff;" vertex="1" parent="1">
          <mxGeometry x="-1100" y="-787.1700000000001" width="80" height="59.33" as="geometry" />
        </mxCell>
        <mxCell id="4Zp72_SuEW13jE6xnvjN-39" value="&lt;font style=&quot;color: rgb(255, 255, 255);&quot;&gt;Payroll System DE&lt;/font&gt;" style="shape=cylinder3;whiteSpace=wrap;html=1;boundedLbl=1;backgroundOutline=1;size=10.899488525390552;fillColor=#4D4D4D;strokeColor=#3700CC;fontColor=#ffffff;" vertex="1" parent="1">
          <mxGeometry x="-1100" y="-723.9000000000001" width="80" height="59.33" as="geometry" />
        </mxCell>
        <mxCell id="4Zp72_SuEW13jE6xnvjN-40" value="" style="shape=image;html=1;verticalAlign=top;verticalLabelPosition=bottom;labelBackgroundColor=#ffffff;imageAspect=0;aspect=fixed;image=https://cdn3.iconfinder.com/data/icons/142-mini-country-flags-16x16px/32/flag-germany2x.png" vertex="1" parent="1">
          <mxGeometry x="-1010" y="-723.9" width="32" height="32" as="geometry" />
        </mxCell>
        <mxCell id="4Zp72_SuEW13jE6xnvjN-41" value="" style="shape=image;html=1;verticalAlign=top;verticalLabelPosition=bottom;labelBackgroundColor=#ffffff;imageAspect=0;aspect=fixed;image=https://cdn3.iconfinder.com/data/icons/142-mini-country-flags-16x16px/32/flag-india2x.png" vertex="1" parent="1">
          <mxGeometry x="-1010" y="-659.33" width="32" height="32" as="geometry" />
        </mxCell>
        <mxCell id="4Zp72_SuEW13jE6xnvjN-42" value="&lt;font style=&quot;color: rgb(255, 255, 255);&quot;&gt;Payroll System IND&lt;/font&gt;" style="shape=cylinder3;whiteSpace=wrap;html=1;boundedLbl=1;backgroundOutline=1;size=10.899488525390552;fillColor=#4D4D4D;strokeColor=#3700CC;fontColor=#ffffff;" vertex="1" parent="1">
          <mxGeometry x="-1100" y="-659.33" width="80" height="59.33" as="geometry" />
        </mxCell>
        <mxCell id="4Zp72_SuEW13jE6xnvjN-43" value="&lt;font style=&quot;color: rgb(255, 255, 255);&quot;&gt;Payroll System CN&lt;/font&gt;" style="shape=cylinder3;whiteSpace=wrap;html=1;boundedLbl=1;backgroundOutline=1;size=10.899488525390552;fillColor=#4D4D4D;strokeColor=#3700CC;fontColor=#ffffff;" vertex="1" parent="1">
          <mxGeometry x="-1100" y="-600" width="80" height="59.33" as="geometry" />
        </mxCell>
        <mxCell id="4Zp72_SuEW13jE6xnvjN-44" value="" style="shape=image;html=1;verticalAlign=top;verticalLabelPosition=bottom;labelBackgroundColor=#ffffff;imageAspect=0;aspect=fixed;image=https://cdn3.iconfinder.com/data/icons/142-mini-country-flags-16x16px/32/flag-china2x.png" vertex="1" parent="1">
          <mxGeometry x="-1010" y="-586.34" width="32" height="32" as="geometry" />
        </mxCell>
        <mxCell id="4Zp72_SuEW13jE6xnvjN-45" value="" style="shape=image;html=1;verticalAlign=top;verticalLabelPosition=bottom;labelBackgroundColor=#ffffff;imageAspect=0;aspect=fixed;image=https://cdn3.iconfinder.com/data/icons/142-mini-country-flags-16x16px/32/flag-japan2x.png" vertex="1" parent="1">
          <mxGeometry x="-1010" y="-530" width="32" height="32" as="geometry" />
        </mxCell>
        <mxCell id="4Zp72_SuEW13jE6xnvjN-46" value="&lt;font style=&quot;color: rgb(255, 255, 255);&quot;&gt;Payroll System JPN&lt;/font&gt;" style="shape=cylinder3;whiteSpace=wrap;html=1;boundedLbl=1;backgroundOutline=1;size=10.899488525390552;fillColor=#4D4D4D;strokeColor=#3700CC;fontColor=#ffffff;" vertex="1" parent="1">
          <mxGeometry x="-1100" y="-530" width="80" height="59.33" as="geometry" />
        </mxCell>
        <mxCell id="4Zp72_SuEW13jE6xnvjN-47" value="Global HR System" style="rounded=0;whiteSpace=wrap;html=1;fillColor=#1ba1e2;fontColor=#ffffff;strokeColor=#006EAF;" vertex="1" parent="1">
          <mxGeometry x="-1630" y="-815" width="120" height="20.67" as="geometry" />
        </mxCell>
        <mxCell id="4Zp72_SuEW13jE6xnvjN-48" style="edgeStyle=orthogonalEdgeStyle;rounded=1;orthogonalLoop=1;jettySize=auto;html=1;entryX=0;entryY=0.5;entryDx=0;entryDy=0;entryPerimeter=0;curved=0;strokeColor=#808080;" edge="1" parent="1" source="4Zp72_SuEW13jE6xnvjN-11" target="4Zp72_SuEW13jE6xnvjN-15">
          <mxGeometry relative="1" as="geometry">
            <Array as="points">
              <mxPoint x="-1350" y="-649" />
              <mxPoint x="-1350" y="-820" />
            </Array>
          </mxGeometry>
        </mxCell>
        <mxCell id="4Zp72_SuEW13jE6xnvjN-49" style="edgeStyle=orthogonalEdgeStyle;rounded=1;orthogonalLoop=1;jettySize=auto;html=1;entryX=0;entryY=0.5;entryDx=0;entryDy=0;entryPerimeter=0;curved=0;strokeColor=#808080;" edge="1" parent="1" source="4Zp72_SuEW13jE6xnvjN-11" target="4Zp72_SuEW13jE6xnvjN-38">
          <mxGeometry relative="1" as="geometry">
            <Array as="points">
              <mxPoint x="-1350" y="-649" />
              <mxPoint x="-1350" y="-757" />
            </Array>
          </mxGeometry>
        </mxCell>
        <mxCell id="4Zp72_SuEW13jE6xnvjN-50" style="edgeStyle=orthogonalEdgeStyle;rounded=1;orthogonalLoop=1;jettySize=auto;html=1;entryX=0;entryY=0.5;entryDx=0;entryDy=0;entryPerimeter=0;curved=0;strokeColor=#808080;" edge="1" parent="1" source="4Zp72_SuEW13jE6xnvjN-11" target="4Zp72_SuEW13jE6xnvjN-39">
          <mxGeometry relative="1" as="geometry">
            <Array as="points">
              <mxPoint x="-1350" y="-649" />
              <mxPoint x="-1350" y="-694" />
            </Array>
          </mxGeometry>
        </mxCell>
        <mxCell id="4Zp72_SuEW13jE6xnvjN-51" style="edgeStyle=orthogonalEdgeStyle;rounded=1;orthogonalLoop=1;jettySize=auto;html=1;entryX=0;entryY=0;entryDx=0;entryDy=39.047755737304726;entryPerimeter=0;curved=0;strokeColor=#808080;" edge="1" parent="1" source="4Zp72_SuEW13jE6xnvjN-11" target="4Zp72_SuEW13jE6xnvjN-42">
          <mxGeometry relative="1" as="geometry">
            <Array as="points">
              <mxPoint x="-1350" y="-649" />
              <mxPoint x="-1350" y="-620" />
            </Array>
          </mxGeometry>
        </mxCell>
        <mxCell id="4Zp72_SuEW13jE6xnvjN-52" style="edgeStyle=orthogonalEdgeStyle;rounded=1;orthogonalLoop=1;jettySize=auto;html=1;entryX=0;entryY=0.5;entryDx=0;entryDy=0;entryPerimeter=0;curved=0;strokeColor=#808080;" edge="1" parent="1" source="4Zp72_SuEW13jE6xnvjN-11" target="4Zp72_SuEW13jE6xnvjN-43">
          <mxGeometry relative="1" as="geometry">
            <Array as="points">
              <mxPoint x="-1350" y="-649" />
              <mxPoint x="-1350" y="-570" />
            </Array>
          </mxGeometry>
        </mxCell>
        <mxCell id="4Zp72_SuEW13jE6xnvjN-53" style="edgeStyle=orthogonalEdgeStyle;rounded=1;orthogonalLoop=1;jettySize=auto;html=1;entryX=0;entryY=0;entryDx=0;entryDy=39.047755737304726;entryPerimeter=0;curved=0;strokeColor=#808080;" edge="1" parent="1" source="4Zp72_SuEW13jE6xnvjN-11" target="4Zp72_SuEW13jE6xnvjN-46">
          <mxGeometry relative="1" as="geometry">
            <Array as="points">
              <mxPoint x="-1350" y="-650" />
              <mxPoint x="-1350" y="-491" />
            </Array>
          </mxGeometry>
        </mxCell>
        <mxCell id="4Zp72_SuEW13jE6xnvjN-54" value="HR Data" style="rounded=0;whiteSpace=wrap;html=1;fillColor=#1ba1e2;fontColor=#ffffff;strokeColor=#006EAF;shadow=1;opacity=50;" vertex="1" parent="1">
          <mxGeometry x="-1420" y="-824.5699999999999" width="60" height="49.57" as="geometry" />
        </mxCell>
        <mxCell id="4Zp72_SuEW13jE6xnvjN-55" value="Personal Data" style="rounded=0;whiteSpace=wrap;html=1;fillColor=#1ba1e2;fontColor=#ffffff;strokeColor=#006EAF;shadow=1;opacity=50;" vertex="1" parent="1">
          <mxGeometry x="-1420" y="-769.9999999999999" width="60" height="49.57" as="geometry" />
        </mxCell>
        <mxCell id="4Zp72_SuEW13jE6xnvjN-56" value="Job &amp;amp; Position Data" style="rounded=0;whiteSpace=wrap;html=1;fillColor=#1ba1e2;fontColor=#ffffff;strokeColor=#006EAF;shadow=1;opacity=50;" vertex="1" parent="1">
          <mxGeometry x="-1420" y="-714.1399999999999" width="60" height="49.57" as="geometry" />
        </mxCell>
        <mxCell id="4Zp72_SuEW13jE6xnvjN-57" value="&lt;font style=&quot;font-size: 11px;&quot;&gt;Organization&lt;/font&gt;&lt;div&gt;&lt;font style=&quot;font-size: 11px;&quot;&gt;Data&lt;/font&gt;&lt;/div&gt;" style="rounded=0;whiteSpace=wrap;html=1;fillColor=#1ba1e2;fontColor=#ffffff;strokeColor=#006EAF;shadow=1;opacity=50;" vertex="1" parent="1">
          <mxGeometry x="-1420" y="-639.9999999999999" width="60" height="49.57" as="geometry" />
        </mxCell>
        <mxCell id="4Zp72_SuEW13jE6xnvjN-58" value="&lt;span style=&quot;font-size: 11px;&quot;&gt;Payroll Specific Data&lt;/span&gt;" style="rounded=0;whiteSpace=wrap;html=1;fillColor=#1ba1e2;fontColor=#ffffff;strokeColor=#006EAF;shadow=1;opacity=50;" vertex="1" parent="1">
          <mxGeometry x="-1420" y="-586.3399999999999" width="60" height="49.57" as="geometry" />
        </mxCell>
        <mxCell id="4Zp72_SuEW13jE6xnvjN-59" value="&lt;span style=&quot;font-size: 11px;&quot;&gt;Payroll Specific Data&lt;/span&gt;" style="rounded=0;whiteSpace=wrap;html=1;fillColor=#1ba1e2;fontColor=#ffffff;strokeColor=#006EAF;shadow=1;opacity=50;" vertex="1" parent="1">
          <mxGeometry x="-1420" y="-529.9999999999999" width="60" height="49.57" as="geometry" />
        </mxCell>
        <mxCell id="4Zp72_SuEW13jE6xnvjN-60" value="" style="shape=image;verticalLabelPosition=bottom;labelBackgroundColor=default;verticalAlign=top;aspect=fixed;imageAspect=0;image=https://logo-marque.com/wp-content/uploads/2021/04/Okta-Logo.png;" vertex="1" parent="1">
          <mxGeometry x="-1990" y="-714.14" width="131.8" height="74.14" as="geometry" />
        </mxCell>
        <mxCell id="4Zp72_SuEW13jE6xnvjN-61" value="" style="shape=image;verticalLabelPosition=bottom;labelBackgroundColor=default;verticalAlign=top;aspect=fixed;imageAspect=0;image=https://upload.wikimedia.org/wikipedia/commons/thumb/a/a8/Microsoft_Azure_Logo.svg/2560px-Microsoft_Azure_Logo.svg.png;" vertex="1" parent="1">
          <mxGeometry x="-1985" y="-626.99" width="126.8" height="36.56" as="geometry" />
        </mxCell>
        <mxCell id="4Zp72_SuEW13jE6xnvjN-63" value="" style="rounded=1;whiteSpace=wrap;html=1;opacity=20;fillColor=#0050ef;fontColor=#ffffff;strokeColor=#001DBC;" vertex="1" parent="1">
          <mxGeometry x="-2030" y="-728.67" width="220" height="168.67" as="geometry" />
        </mxCell>
        <mxCell id="4Zp72_SuEW13jE6xnvjN-64" value="" style="shape=image;verticalLabelPosition=bottom;labelBackgroundColor=default;verticalAlign=top;aspect=fixed;imageAspect=0;image=https://help.okta.com/en-us/content/resources/images/diagrams/rts-1.png;" vertex="1" parent="1">
          <mxGeometry x="-2320" y="-536.77" width="704.8" height="370" as="geometry" />
        </mxCell>
        <mxCell id="4Zp72_SuEW13jE6xnvjN-65" style="edgeStyle=orthogonalEdgeStyle;rounded=0;orthogonalLoop=1;jettySize=auto;html=1;entryX=1;entryY=0.401;entryDx=0;entryDy=0;entryPerimeter=0;startArrow=classic;startFill=1;strokeColor=#4D4D4D;" edge="1" parent="1" source="4Zp72_SuEW13jE6xnvjN-11" target="4Zp72_SuEW13jE6xnvjN-63">
          <mxGeometry relative="1" as="geometry" />
        </mxCell>
        <mxCell id="4Zp72_SuEW13jE6xnvjN-67" value="" style="endArrow=none;html=1;rounded=0;entryX=0;entryY=0.5;entryDx=0;entryDy=0;dashed=1;" edge="1" parent="1" target="4Zp72_SuEW13jE6xnvjN-63">
          <mxGeometry width="50" height="50" relative="1" as="geometry">
            <mxPoint x="-2140" y="-540" as="sourcePoint" />
            <mxPoint x="-1400" y="-570" as="targetPoint" />
          </mxGeometry>
        </mxCell>
      </root>
    </mxGraphModel>
  </diagram>
</mxfile>
